<svg width="60" height="60" viewBox="0 0 60 60" fill="none" xmlns="http://www.w3.org/2000/svg">
<rect width="60" height="60" rx="15" fill="#00F5D4"/>
<path d="M49.116 13.184L46.816 10.884C46.5388 10.6034 46.2087 10.3807 45.8448 10.2286C45.4809 10.0766 45.0904 9.99829 44.696 9.99829C44.3016 9.99829 43.9111 10.0766 43.5472 10.2286C43.1833 10.3807 42.8532 10.6034 42.576 10.884L32 21.462V28H38.54L49.116 17.424C49.3966 17.1468 49.6193 16.8167 49.7714 16.4528C49.9234 16.0889 50.0017 15.6984 50.0017 15.304C50.0017 14.9096 49.9234 14.5191 49.7714 14.1552C49.6193 13.7913 49.3966 13.4612 49.116 13.184ZM37.158 24.9H35.098V22.84L42 15.946L44.06 18.006L37.158 24.9Z" fill="white"/>
<path d="M44 44H16V16H28V12H16C14.9401 12.0032 13.9245 12.4256 13.1751 13.1751C12.4256 13.9245 12.0032 14.9401 12 16V44C12.0032 45.0599 12.4256 46.0755 13.1751 46.8249C13.9245 47.5744 14.9401 47.9968 16 48H44C45.0599 47.9968 46.0755 47.5744 46.8249 46.8249C47.5744 46.0755 47.9968 45.0599 48 44V32H44V44Z" fill="white"/>
</svg>
