<svg width="60" height="60" viewBox="0 0 60 60" fill="none" xmlns="http://www.w3.org/2000/svg">
<rect width="60" height="60" rx="15" fill="#00BBF9"/>
<path d="M18 22.5C18 21.7044 18.316 20.9413 18.8786 20.3787C19.4413 19.8161 20.2043 19.5 21 19.5H39C39.7956 19.5 40.5587 19.8161 41.1213 20.3787C41.6839 20.9413 42 21.7044 42 22.5V27C42 27.7956 41.6839 28.5587 41.1213 29.1213C40.5587 29.6839 39.7956 30 39 30H21C20.2043 30 19.4413 29.6839 18.8786 29.1213C18.316 28.5587 18 27.7956 18 27V22.5ZM39 22.5H21V27H39V22.5ZM34.5 33C33.7043 33 32.9413 33.3161 32.3786 33.8787C31.816 34.4413 31.5 35.2044 31.5 36V39C31.5 39.7956 31.816 40.5587 32.3786 41.1213C32.9413 41.6839 33.7043 42 34.5 42H39C39.7956 42 40.5587 41.6839 41.1213 41.1213C41.6839 40.5587 42 39.7956 42 39V36C42 35.2044 41.6839 34.4413 41.1213 33.8787C40.5587 33.3161 39.7956 33 39 33H34.5ZM34.5 36H39V39H34.5V36ZM18 34.5C18 34.1022 18.158 33.7206 18.4393 33.4393C18.7206 33.158 19.1021 33 19.5 33H27C27.3978 33 27.7793 33.158 28.0606 33.4393C28.3419 33.7206 28.5 34.1022 28.5 34.5C28.5 34.8978 28.3419 35.2794 28.0606 35.5607C27.7793 35.842 27.3978 36 27 36H19.5C19.1021 36 18.7206 35.842 18.4393 35.5607C18.158 35.2794 18 34.8978 18 34.5ZM19.5 39C19.1021 39 18.7206 39.158 18.4393 39.4393C18.158 39.7206 18 40.1022 18 40.5C18 40.8978 18.158 41.2794 18.4393 41.5607C18.7206 41.842 19.1021 42 19.5 42H27C27.3978 42 27.7793 41.842 28.0606 41.5607C28.3419 41.2794 28.5 40.8978 28.5 40.5C28.5 40.1022 28.3419 39.7206 28.0606 39.4393C27.7793 39.158 27.3978 39 27 39H19.5ZM19.491 12C17.5018 12 15.5942 12.7902 14.1877 14.1967C12.7811 15.6032 11.991 17.5109 11.991 19.5V40.5C11.991 42.4891 12.7811 44.3968 14.1877 45.8033C15.5942 47.2098 17.5018 48 19.491 48H40.491C41.4759 48 42.4512 47.806 43.3611 47.4291C44.271 47.0522 45.0978 46.4997 45.7943 45.8033C46.4907 45.1069 47.0432 44.2801 47.4201 43.3701C47.797 42.4602 47.991 41.4849 47.991 40.5V19.5C47.991 18.5151 47.797 17.5398 47.4201 16.6299C47.0432 15.7199 46.4907 14.8931 45.7943 14.1967C45.0978 13.5003 44.271 12.9478 43.3611 12.5709C42.4512 12.194 41.4759 12 40.491 12H19.491ZM14.991 19.5C14.991 18.3065 15.4651 17.1619 16.309 16.318C17.1529 15.4741 18.2975 15 19.491 15H40.491C41.6844 15 42.829 15.4741 43.6729 16.318C44.5169 17.1619 44.991 18.3065 44.991 19.5V40.5C44.991 41.6935 44.5169 42.8381 43.6729 43.682C42.829 44.5259 41.6844 45 40.491 45H19.491C18.2975 45 17.1529 44.5259 16.309 43.682C15.4651 42.8381 14.991 41.6935 14.991 40.5V19.5Z" fill="white"/>
</svg>
