<svg width="60" height="60" viewBox="0 0 60 60" fill="none" xmlns="http://www.w3.org/2000/svg">
<rect width="60" height="60" rx="15" fill="#F15BB5"/>
<path d="M18 29.2134V42H30.7867L28.12 39.3334H20.6667V31.88L18 29.2134Z" fill="white"/>
<path d="M52.4933 49.0533L48.6667 45.1733V48.6666H11.3333V43.1333H14V41H11.3333V32.1333H14V30H11.3333V21.4666H14V19.3333H11.3333V11.88L32.5867 33.0133V29.2533L10.9466 7.71998C10.7602 7.53194 10.5219 7.4037 10.2622 7.35161C10.0026 7.29952 9.73327 7.32593 9.48867 7.42749C9.24408 7.52904 9.03527 7.70114 8.88887 7.92183C8.74247 8.14252 8.66511 8.40182 8.66665 8.66665V50C8.66665 50.3536 8.80712 50.6927 9.05717 50.9428C9.30722 51.1928 9.64636 51.3333 9.99998 51.3333H51.5466C51.8115 51.3349 52.0708 51.2575 52.2915 51.1111C52.5122 50.9647 52.6843 50.7559 52.7858 50.5113C52.8874 50.2667 52.9138 49.9974 52.8617 49.7377C52.8096 49.4781 52.6814 49.2398 52.4933 49.0533Z" fill="white"/>
<path d="M38 45.9999H43.3333C44.0406 45.9999 44.7188 45.719 45.2189 45.2189C45.719 44.7188 46 44.0405 46 43.3333V17.5999L42.9333 11.9599C42.6961 11.549 42.3536 11.2088 41.9411 10.9745C41.5286 10.7401 41.061 10.62 40.5866 10.6266C40.1015 10.6305 39.6266 10.7666 39.2131 11.0203C38.7996 11.2741 38.4631 11.6358 38.24 12.0666L35.3333 17.6266V43.3333C35.3333 44.0405 35.6143 44.7188 36.1144 45.2189C36.6145 45.719 37.2927 45.9999 38 45.9999ZM38 18.2666L40.5866 13.2399L43.3333 18.2799V37.9999H38V18.2666ZM38 40.1733H43.3333V43.4266H38V40.1733Z" fill="white"/>
</svg>
